<svg width="38" height="35"  viewBox="0 0 38 35" fill="none" xmlns="http://www.w3.org/2000/svg">
<path d="M16.5706 3.54363C10.1736 7.63972 6.97501 12.5727 6.97501 18.3425C6.97501 20.1376 7.28756 21.0351 7.91264 21.0351L8.55614 20.8613C9.06205 20.6663 9.47156 20.5688 9.78464 20.5688C11.6176 20.5688 13.1478 21.235 14.3753 22.5675C15.6027 23.9 16.2169 25.5445 16.218 27.501C16.2169 29.3817 15.5534 30.978 14.2274 32.2899C12.9014 33.6007 11.3024 34.2561 9.43039 34.2561C6.81739 34.2561 4.66155 33.182 2.96289 31.0338C1.26855 28.8888 0.421388 26.1929 0.421388 22.9461C0.420305 19.2736 1.14072 15.9137 2.58264 12.8663C4.0278 9.81992 6.23131 7.06555 9.19314 4.60313C12.1571 2.14288 14.0486 0.912216 14.8676 0.911133C15.4136 0.911133 15.8621 1.17438 16.2131 1.70088C16.5641 2.2263 16.7396 2.68401 16.7396 3.07401L16.5658 3.54201L16.5706 3.54363ZM37.6306 3.54363C31.2336 7.63863 28.0356 12.5721 28.0366 18.3441C28.0366 20.1392 28.3492 21.0368 28.9743 21.0368L29.6178 20.8629C30.1237 20.6679 30.5332 20.5704 30.8463 20.5704C32.6403 20.5704 34.1607 21.2366 35.4076 22.5691C36.6567 23.8995 37.2807 25.544 37.2796 27.5026C37.2786 29.3833 36.615 30.9796 35.289 32.2915C33.963 33.6023 32.364 34.2578 30.492 34.2578C27.879 34.2578 25.7232 33.1836 24.0245 31.0354C22.3302 28.8904 21.483 26.1945 21.483 22.9478C21.4808 19.2363 22.2121 15.8476 23.6768 12.7818C25.1393 9.71484 27.3422 6.97022 30.2856 4.54788C33.2345 2.12447 35.1168 0.912758 35.9325 0.912758C36.4796 0.912758 36.9292 1.17601 37.2813 1.70251C37.6312 2.22901 37.8061 2.68726 37.8061 3.07726L37.6306 3.54363Z" fill="#EE5353"/>
</svg>
