<svg width="36" height="36" viewBox="0 0 36 36" fill="none" xmlns="http://www.w3.org/2000/svg">
<path fill-rule="evenodd" clip-rule="evenodd" d="M18 28.5C19.3789 28.5 20.7443 28.2284 22.0182 27.7007C23.2921 27.1731 24.4496 26.3996 25.4246 25.4246C26.3996 24.4496 27.1731 23.2921 27.7007 22.0182C28.2284 20.7443 28.5 19.3789 28.5 18C28.5 16.6211 28.2284 15.2557 27.7007 13.9818C27.1731 12.7079 26.3996 11.5504 25.4246 10.5754C24.4496 9.60036 23.2921 8.82694 22.0182 8.29926C20.7443 7.77159 19.3789 7.5 18 7.5C15.2152 7.5 12.5445 8.60625 10.5754 10.5754C8.60625 12.5445 7.5 15.2152 7.5 18C7.5 20.7848 8.60625 23.4555 10.5754 25.4246C12.5445 27.3938 15.2152 28.5 18 28.5ZM15.1305 11.07C16.0403 10.6935 17.0154 10.4998 18 10.5C18.1989 10.5 18.3897 10.421 18.5303 10.2803C18.671 10.1397 18.75 9.94891 18.75 9.75C18.75 9.55109 18.671 9.36032 18.5303 9.21967C18.3897 9.07902 18.1989 9 18 9C15.6131 9 13.3239 9.94821 11.636 11.636C9.94821 13.3239 9 15.6131 9 18C9 18.1989 9.07902 18.3897 9.21967 18.5303C9.36032 18.671 9.55109 18.75 9.75 18.75C9.94891 18.75 10.1397 18.671 10.2803 18.5303C10.421 18.3897 10.5 18.1989 10.5 18C10.4999 16.5164 10.9397 15.0661 11.764 13.8326C12.5882 12.599 13.7598 11.6376 15.1305 11.07Z" fill="#827F7F"/>
<path d="M30.75 30.75L25.5 25.5" stroke="#464646" stroke-linecap="round"/>
<path d="M16.5 29.25C23.5416 29.25 29.25 23.5416 29.25 16.5C29.25 9.45837 23.5416 3.75 16.5 3.75C9.45837 3.75 3.75 9.45837 3.75 16.5C3.75 23.5416 9.45837 29.25 16.5 29.25Z" stroke="#464646"/>
</svg>
