<svg width="40" height="40" viewBox="0 0 40 40" fill="none" xmlns="http://www.w3.org/2000/svg">
<path d="M34.7618 11.9216C34.5829 11.2478 34.2301 10.633 33.7388 10.1385C33.2475 9.64401 32.6349 9.28732 31.9623 9.10412C29.4932 8.43799 19.5921 8.43799 19.5921 8.43799C19.5921 8.43799 9.69103 8.43799 7.22188 9.10412C6.54932 9.28732 5.9367 9.64401 5.44538 10.1385C4.95406 10.633 4.60129 11.2478 4.4224 11.9216C3.76062 14.4065 3.76062 19.5919 3.76062 19.5919C3.76062 19.5919 3.76062 24.7772 4.4224 27.2627C4.60129 27.9364 4.95406 28.5513 5.44538 29.0458C5.9367 29.5402 6.54932 29.8969 7.22188 30.0801C9.69103 30.7457 19.5921 30.7457 19.5921 30.7457C19.5921 30.7457 29.4932 30.7457 31.9623 30.0801C32.6349 29.8969 33.2475 29.5402 33.7388 29.0458C34.2301 28.5513 34.5829 27.9364 34.7618 27.2627C35.4236 24.7772 35.4236 19.5919 35.4236 19.5919C35.4236 19.5919 35.4236 14.4065 34.7618 11.9216Z" fill="#EA5A47"/>
<path d="M16.3539 24.2998L24.6293 19.5923L16.3539 14.8848V24.2998Z" fill="white"/>
<path d="M34.7618 11.9216C34.5829 11.2478 34.2301 10.633 33.7388 10.1385C33.2475 9.64401 32.6349 9.28732 31.9623 9.10412C29.4932 8.43799 19.5921 8.43799 19.5921 8.43799C19.5921 8.43799 9.69103 8.43799 7.22188 9.10412C6.54932 9.28732 5.9367 9.64401 5.44538 10.1385C4.95406 10.633 4.60129 11.2478 4.4224 11.9216C3.76062 14.4065 3.76062 19.5919 3.76062 19.5919C3.76062 19.5919 3.76062 24.7772 4.4224 27.2627C4.60129 27.9364 4.95406 28.5513 5.44538 29.0458C5.9367 29.5402 6.54932 29.8969 7.22188 30.0801C9.69103 30.7457 19.5921 30.7457 19.5921 30.7457C19.5921 30.7457 29.4932 30.7457 31.9623 30.0801C32.6349 29.8969 33.2475 29.5402 33.7388 29.0458C34.2301 28.5513 34.5829 27.9364 34.7618 27.2627C35.4236 24.7772 35.4236 19.5919 35.4236 19.5919C35.4236 19.5919 35.4236 14.4065 34.7618 11.9216Z" stroke="#464646" stroke-miterlimit="10"/>
<path d="M16.354 24.2993L24.6295 19.5918L16.354 14.8843V24.2993Z" stroke="#464646" stroke-miterlimit="10" stroke-linecap="round" stroke-linejoin="round"/>
</svg>
